<mxfile host="app.diagrams.net" modified="2024-03-20T02:01:41.506Z" agent="Mozilla/5.0 (Windows NT 10.0; Win64; x64) AppleWebKit/537.36 (KHTML, like Gecko) Chrome/120.0.0.0 Safari/537.36" etag="oKTEfP2o95lCWe0drrx5" version="24.0.7" type="github">
  <diagram name="第 1 页" id="Gpj6Sz1y_bJdykz8VpNv">
    <mxGraphModel dx="1499" dy="699" grid="1" gridSize="10" guides="1" tooltips="1" connect="1" arrows="1" fold="1" page="1" pageScale="1" pageWidth="1654" pageHeight="2336" math="0" shadow="0">
      <root>
        <mxCell id="0" />
        <mxCell id="1" parent="0" />
      </root>
    </mxGraphModel>
  </diagram>
</mxfile>
